# xmcd
#
# Track frame offsets: 
#        150
#        14359
#        31619
#        53603
#        72575
#        92591
#        107737
#        127500
#        142969
#        161679
#        178897
#        196354
#        213974
#        228878
#        244535
#        263196
#
# Disc length: 3725 seconds
#
# Revision: 4
# Processed by: cddbd v1.5.2PL0 Copyright (c) Steve Scherf et al.
# Submitted via: ExactAudioCopyFreeDBPlugin 1.0
#
DISCID=cc0e8b10
DTITLE=Various Artist - New Country Music CD1
DYEAR=2007
DGENRE=Country
TTITLE0=Rachel Proctor - Days like this
TTITLE1=Andy Griggs - Waitin' on sundown
TTITLE2=Carolyn Dawn Johnson - Georgia
TTITLE3=Martina McBride - Concrete angel
TTITLE4=Brad Paisley - She's everything
TTITLE5=Carrie Underwood - Before he cheats
TTITLE6=Brooks and Dunn - Building bridges
TTITLE7=Julie Roberts - Men and Mascara
TTITLE8=Pat Green - Dixie lullaby
TTITLE9=Jo Dee Messina - Delicious surprise (I believe it)
TTITLE10=Lost Trailers - Why me
TTITLE11=Ashley Monroe - I don't want to
TTITLE12=Chely Wright - Single white female
TTITLE13=Jeff Bates - Leave the light on
TTITLE14=Lonestar - I just want to love you
TTITLE15=LeAnn Rimes - You light up my life
EXTD=YEAR: 2007
EXTT0=
EXTT1=
EXTT2=
EXTT3=
EXTT4=
EXTT5=
EXTT6=
EXTT7=
EXTT8=
EXTT9=
EXTT10=
EXTT11=
EXTT12=
EXTT13=
EXTT14=
EXTT15=
PLAYORDER=
